<svg width="24" height="24" viewBox="0 0 24 24" fill="none" xmlns="http://www.w3.org/2000/svg">
<path fill-rule="evenodd" clip-rule="evenodd" d="M10.187 11.362C10.7274 11.1221 11.1918 10.7389 11.53 10.254C11.8482 9.72695 12.005 9.1182 11.981 8.503C12.0024 7.94056 11.8985 7.38041 11.677 6.863C11.4961 6.42226 11.1988 6.03895 10.817 5.754C10.417 5.464 9.962 5.267 9.484 5.178C8.91945 5.05255 8.34228 4.99282 7.764 5H1.8C1.72044 5 1.64413 5.0316 1.58787 5.08787C1.53161 5.14413 1.5 5.22043 1.5 5.3V18.641C1.5 18.7206 1.53161 18.7969 1.58787 18.8531C1.64413 18.9094 1.72044 18.941 1.8 18.941H7.9C8.484 18.941 9.066 18.863 9.63 18.708C10.1692 18.5592 10.6775 18.3154 11.131 17.988C11.579 17.6591 11.9395 17.2255 12.181 16.725C12.4545 16.155 12.5875 15.5279 12.569 14.896C12.5901 14.1147 12.3819 13.3443 11.97 12.68C11.5425 12.0279 10.8883 11.5576 10.134 11.36L10.187 11.362ZM4.55 7.25C4.49696 7.25 4.44609 7.27107 4.40858 7.30858C4.37107 7.34608 4.35 7.39695 4.35 7.45V10.55C4.35 10.66 4.44 10.75 4.55 10.75H7.35C7.81413 10.75 8.25925 10.5656 8.58744 10.2374C8.91563 9.90925 9.1 9.46413 9.1 9C9.1 8.53587 8.91563 8.09075 8.58744 7.76256C8.25925 7.43437 7.81413 7.25 7.35 7.25H4.55ZM4.35 12.7C4.35 12.59 4.44 12.5 4.55 12.5H7.475C8.03858 12.5 8.57909 12.7239 8.9776 13.1224C9.37612 13.5209 9.6 14.0614 9.6 14.625C9.6 15.1886 9.37612 15.7291 8.9776 16.1276C8.57909 16.5261 8.03858 16.75 7.475 16.75H4.55C4.49696 16.75 4.44609 16.7289 4.40858 16.6914C4.37107 16.6539 4.35 16.603 4.35 16.55V12.7Z" fill="#fff"/>
<path d="M15.439 5.71001H20.162C20.2409 5.71 20.3166 5.74106 20.3727 5.79646C20.4289 5.85185 20.461 5.92714 20.462 6.00601L20.475 6.96801C20.4755 7.00774 20.4682 7.04718 20.4533 7.08404C20.4385 7.1209 20.4165 7.15445 20.3886 7.18273C20.3607 7.21101 20.3274 7.23347 20.2907 7.24879C20.2541 7.26412 20.2147 7.27201 20.175 7.27201H15.439C15.3594 7.27201 15.2831 7.2404 15.2269 7.18414C15.1706 7.12788 15.139 7.05157 15.139 6.97201V6.01001C15.139 5.93044 15.1706 5.85414 15.2269 5.79787C15.2831 5.74161 15.3594 5.71001 15.439 5.71001Z" fill="#fff"/>
<path fill-rule="evenodd" clip-rule="evenodd" d="M17.972 16.87C18.4587 16.8844 18.937 16.7406 19.335 16.46C19.595 16.287 19.802 16.04 19.933 15.748C19.9499 15.7103 19.977 15.6781 20.0113 15.6551C20.0457 15.6321 20.0857 15.6193 20.127 15.618H22.048C22.178 15.618 22.274 15.74 22.235 15.864C21.9503 16.8031 21.3763 17.6283 20.595 18.222C19.7726 18.7574 18.8059 19.0279 17.825 18.997C17.128 19.0094 16.4356 18.8815 15.789 18.621C15.201 18.3725 14.6774 17.9932 14.258 17.512C13.8428 17.0124 13.529 16.4367 13.334 15.817C13.1004 15.1247 12.9871 14.3975 12.999 13.667C12.9925 12.9467 13.1095 12.2307 13.345 11.55C13.5604 10.9274 13.8992 10.3547 14.341 9.866C14.7745 9.39513 15.2995 9.01775 15.884 8.757C16.5123 8.48238 17.1913 8.34271 17.877 8.347C18.6073 8.33686 19.3287 8.5087 19.976 8.847C20.5681 9.17457 21.0777 9.63286 21.466 10.187C21.857 10.765 22.142 11.415 22.305 12.104C22.4727 12.8303 22.5327 13.5773 22.483 14.321H15.538C15.5046 15.0292 15.7363 15.7245 16.188 16.271C16.43 16.495 16.714 16.664 17.021 16.767C17.328 16.87 17.652 16.905 17.972 16.87ZM15.6 12.399C15.5999 12.4123 15.6024 12.4255 15.6074 12.4378C15.6125 12.4501 15.6199 12.4613 15.6293 12.4707C15.6387 12.4801 15.6499 12.4876 15.6622 12.4926C15.6745 12.4976 15.6877 12.5001 15.701 12.5H19.749C19.7623 12.5001 19.7755 12.4976 19.7878 12.4926C19.8001 12.4876 19.8113 12.4801 19.8207 12.4707C19.8301 12.4613 19.8376 12.4501 19.8426 12.4378C19.8476 12.4255 19.8501 12.4123 19.85 12.399C19.85 11.8622 19.6368 11.3474 19.2572 10.9678C18.8776 10.5882 18.3628 10.375 17.826 10.375H17.624C17.0872 10.375 16.5724 10.5882 16.1928 10.9678C15.8133 11.3474 15.6 11.8622 15.6 12.399Z" fill="#fff"/>
</svg>
