<svg width="24" height="24" viewBox="0 0 24 24" fill="none" xmlns="http://www.w3.org/2000/svg">
<path d="M16.5001 21.75C16.5001 21.9489 16.4211 22.1396 16.2805 22.2803C16.1398 22.4209 15.949 22.5 15.7501 22.5H8.25012C8.05121 22.5 7.86045 22.4209 7.71979 22.2803C7.57914 22.1396 7.50012 21.9489 7.50012 21.75C7.50012 21.551 7.57914 21.3603 7.71979 21.2196C7.86045 21.079 8.05121 21 8.25012 21H15.7501C15.949 21 16.1398 21.079 16.2805 21.2196C16.4211 21.3603 16.5001 21.551 16.5001 21.75ZM20.2501 9.74995C20.2534 11.0002 19.9709 12.2347 19.4243 13.3592C18.8778 14.4837 18.0815 15.4685 17.0964 16.2384C16.9122 16.3796 16.7627 16.561 16.6593 16.7688C16.556 16.9767 16.5015 17.2054 16.5001 17.4375V18C16.5001 18.3978 16.3421 18.7793 16.0608 19.0606C15.7795 19.3419 15.3979 19.5 15.0001 19.5H9.00012C8.6023 19.5 8.22077 19.3419 7.93946 19.0606C7.65816 18.7793 7.50012 18.3978 7.50012 18V17.4375C7.49997 17.2081 7.44724 16.9819 7.34599 16.7762C7.24474 16.5704 7.09766 16.3906 6.91606 16.2506C5.9335 15.4853 5.13787 14.5066 4.58937 13.3885C4.04087 12.2704 3.75389 11.0422 3.75012 9.79683C3.72575 5.32777 7.337 1.60777 11.8014 1.49995C12.9014 1.47345 13.9956 1.66725 15.0196 2.06997C16.0436 2.47269 16.9767 3.07617 17.7639 3.84491C18.5512 4.61365 19.1767 5.53211 19.6037 6.54622C20.0306 7.56034 20.2504 8.64962 20.2501 9.74995ZM18.7501 9.74995C18.7504 8.84964 18.5705 7.95836 18.2212 7.1286C17.8718 6.29883 17.3599 5.54735 16.7158 4.91837C16.0716 4.2894 15.3081 3.79564 14.4702 3.46618C13.6324 3.13671 12.7371 2.9782 11.837 2.99995C8.18075 3.0862 5.23044 6.13027 5.25012 9.78652C5.25348 10.8052 5.48852 11.8098 5.93745 12.7242C6.38639 13.6387 7.03745 14.439 7.84137 15.0646C8.20273 15.3456 8.49501 15.7054 8.69586 16.1167C8.8967 16.528 9.00078 16.9798 9.00012 17.4375V18H11.2501V13.8103L8.4695 11.0306C8.32877 10.8898 8.24971 10.699 8.24971 10.5C8.24971 10.3009 8.32877 10.1101 8.4695 9.96933C8.61023 9.8286 8.8011 9.74954 9.00012 9.74954C9.19915 9.74954 9.39002 9.8286 9.53075 9.96933L12.0001 12.4396L14.4695 9.96933C14.5392 9.89965 14.6219 9.84437 14.713 9.80666C14.804 9.76895 14.9016 9.74954 15.0001 9.74954C15.0987 9.74954 15.1963 9.76895 15.2873 9.80666C15.3783 9.84437 15.4611 9.89965 15.5307 9.96933C15.6004 10.039 15.6557 10.1217 15.6934 10.2128C15.7311 10.3038 15.7505 10.4014 15.7505 10.5C15.7505 10.5985 15.7311 10.6961 15.6934 10.7871C15.6557 10.8782 15.6004 10.9609 15.5307 11.0306L12.7501 13.8103V18H15.0001V17.4375C15.001 16.9784 15.1067 16.5256 15.3093 16.1137C15.512 15.7018 15.8061 15.3417 16.1692 15.0609C16.9755 14.4307 17.6272 13.6247 18.0745 12.7042C18.5218 11.7838 18.7529 10.7733 18.7501 9.74995Z" fill="black"/>
</svg>
