<svg width="24" height="24" viewBox="0 0 24 24" fill="none" xmlns="http://www.w3.org/2000/svg">
<path fill-rule="evenodd" clip-rule="evenodd" d="M9.96001 4.004C11.1816 5.53813 12.2721 7.17222 13.22 8.889C14.9229 8.2526 16.5416 7.41035 18.04 6.381C17.2687 5.5501 16.3341 4.8875 15.2948 4.43476C14.2554 3.98202 13.1337 3.74889 12 3.75C11.296 3.75 10.613 3.838 9.96001 4.004ZM18.96 7.569C17.3916 8.65234 15.6996 9.54497 13.92 10.228C14.2053 10.804 14.4747 11.3893 14.728 11.984C16.5684 11.7128 18.4444 11.8138 20.245 12.281C20.2483 12.1877 20.25 12.094 20.25 12C20.2531 10.43 19.8053 8.89205 18.96 7.569ZM20.057 13.784C18.5119 13.354 16.8976 13.2304 15.305 13.42C15.9488 15.1363 16.4547 16.9013 16.818 18.698C18.4644 17.5133 19.6173 15.7641 20.057 13.784ZM15.445 19.499C15.0761 17.5176 14.5265 15.5741 13.803 13.693C10.9887 14.3932 8.51223 16.0652 6.81101 18.414C8.27748 19.6056 10.1105 20.2541 12 20.25C13.1892 20.2524 14.3647 19.9962 15.445 19.499ZM5.72601 17.358C7.58569 14.8741 10.2282 13.0893 13.227 12.292C12.9951 11.7626 12.7494 11.2395 12.49 10.723C9.66625 11.6008 6.7041 11.947 3.75401 11.744C3.75135 11.8287 3.75001 11.914 3.75001 12C3.75001 14.045 4.49301 15.916 5.72601 17.358ZM3.93601 10.253C4.41201 10.2837 4.89268 10.299 5.37801 10.299C7.5429 10.3009 9.69663 9.98903 11.772 9.373C10.8142 7.66913 9.7083 6.05289 8.46701 4.543C7.32555 5.08525 6.32353 5.88187 5.53791 6.8717C4.75228 7.86153 4.20395 9.01824 3.93501 10.253M8.40501 2.933C9.54916 2.47932 10.7692 2.24753 12 2.25C13.4951 2.24928 14.9703 2.59275 16.3113 3.25379C17.6523 3.91484 18.8231 4.87572 19.733 6.062C21.0443 7.7634 21.7537 9.85194 21.75 12C21.75 12.4633 21.7183 12.919 21.655 13.367C21.4404 14.8773 20.8747 16.3162 20.0034 17.5683C19.1322 18.8204 17.9795 19.8509 16.638 20.577C15.2142 21.3491 13.6197 21.7524 12 21.75C9.50746 21.7533 7.10891 20.7989 5.30001 19.084C4.1936 18.0398 3.34748 16.7506 2.82959 15.3201C2.3117 13.8896 2.13649 12.3575 2.31801 10.847C2.52643 9.10213 3.20208 7.4459 4.27362 6.05313C5.34517 4.66037 6.77287 3.58274 8.40601 2.934" fill="#fff"/>
</svg>
