<svg width="24" height="24" viewBox="0 0 24 24" fill="none" xmlns="http://www.w3.org/2000/svg">
<path d="M20.7255 13.5385C20.1686 11.3726 18.8306 9.48904 16.9689 8.25002H22.5002C22.6991 8.25002 22.8898 8.17101 23.0305 8.03035C23.1712 7.8897 23.2502 7.69894 23.2502 7.50002C23.2502 7.30111 23.1712 7.11035 23.0305 6.96969C22.8898 6.82904 22.6991 6.75002 22.5002 6.75002H14.9064C14.7412 6.10471 14.3659 5.53274 13.8397 5.12429C13.3135 4.71584 12.6663 4.49414 12.0002 4.49414C11.334 4.49414 10.6869 4.71584 10.1607 5.12429C9.63445 5.53274 9.25915 6.10471 9.09392 6.75002H1.50017C1.30126 6.75002 1.11049 6.82904 0.96984 6.96969C0.829187 7.11035 0.75017 7.30111 0.75017 7.50002C0.75017 7.69894 0.829187 7.8897 0.96984 8.03035C1.11049 8.17101 1.30126 8.25002 1.50017 8.25002H7.03142C5.16969 9.48904 3.83175 11.3726 3.27486 13.5385C2.55474 13.6534 1.90112 14.0266 1.43623 14.5885C0.971342 15.1503 0.727007 15.8622 0.748914 16.5911C0.77082 17.32 1.05747 18.016 1.55526 18.5489C2.05305 19.0818 2.7279 19.4151 3.45362 19.4866C4.17934 19.558 4.90624 19.3627 5.4984 18.9371C6.09056 18.5115 6.50743 17.8848 6.67106 17.1742C6.83469 16.4635 6.73388 15.7176 6.38748 15.0759C6.04108 14.4342 5.47281 13.9407 4.78892 13.6875C5.11093 12.5773 5.68339 11.5557 6.46224 10.7014C7.24109 9.84716 8.20556 9.18299 9.28142 8.76002C9.52213 9.27905 9.90624 9.71843 10.3884 10.0263C10.8707 10.3342 11.4309 10.4978 12.003 10.4978C12.5751 10.4978 13.1353 10.3342 13.6175 10.0263C14.0997 9.71843 14.4838 9.27905 14.7245 8.76002C15.7994 9.1837 16.7627 9.84818 17.5405 10.7024C18.3184 11.5566 18.89 12.5778 19.2114 13.6875C18.5272 13.9398 17.9583 14.4326 17.6111 15.0739C17.2639 15.7152 17.1622 16.461 17.3249 17.1718C17.4877 17.8827 17.9038 18.5099 18.4954 18.9362C19.087 19.3625 19.8137 19.5588 20.5395 19.4882C21.2653 19.4177 21.9406 19.0851 22.439 18.5528C22.9375 18.0206 23.225 17.3249 23.2478 16.596C23.2706 15.8672 23.0271 15.1549 22.5629 14.5925C22.0986 14.0302 21.4455 13.6561 20.7255 13.5403V13.5385ZM5.25017 16.5C5.25017 16.7967 5.1622 17.0867 4.99737 17.3334C4.83255 17.5801 4.59828 17.7723 4.32419 17.8858C4.05011 17.9994 3.74851 18.0291 3.45753 17.9712C3.16656 17.9133 2.89929 17.7705 2.68951 17.5607C2.47973 17.3509 2.33687 17.0836 2.27899 16.7927C2.22111 16.5017 2.25082 16.2001 2.36435 15.926C2.47788 15.6519 2.67014 15.4176 2.91681 15.2528C3.16349 15.088 3.4535 15 3.75017 15C4.14799 15 4.52953 15.1581 4.81083 15.4394C5.09213 15.7207 5.25017 16.1022 5.25017 16.5ZM12.0002 9.00002C11.7035 9.00002 11.4135 8.91205 11.1668 8.74723C10.9201 8.58241 10.7279 8.34814 10.6144 8.07405C10.5008 7.79996 10.4711 7.49836 10.529 7.20739C10.5869 6.91642 10.7297 6.64914 10.9395 6.43936C11.1493 6.22958 11.4166 6.08672 11.7075 6.02885C11.9985 5.97097 12.3001 6.00067 12.5742 6.1142C12.8483 6.22774 13.0826 6.41999 13.2474 6.66667C13.4122 6.91334 13.5002 7.20335 13.5002 7.50002C13.5002 7.89785 13.3421 8.27938 13.0608 8.56068C12.7795 8.84199 12.398 9.00002 12.0002 9.00002ZM20.2502 18C19.9535 18 19.6635 17.912 19.4168 17.7472C19.1701 17.5824 18.9779 17.3481 18.8643 17.074C18.7508 16.8 18.7211 16.4984 18.779 16.2074C18.8369 15.9164 18.9797 15.6491 19.1895 15.4394C19.3993 15.2296 19.6666 15.0867 19.9575 15.0288C20.2485 14.971 20.5501 15.0007 20.8242 15.1142C21.0983 15.2277 21.3326 15.42 21.4974 15.6667C21.6622 15.9133 21.7502 16.2034 21.7502 16.5C21.7502 16.8978 21.5921 17.2794 21.3108 17.5607C21.0295 17.842 20.648 18 20.2502 18Z" fill="black"/>
</svg>
