<svg width="24" height="24" viewBox="0 0 24 24" fill="none" xmlns="http://www.w3.org/2000/svg">
<path d="M19.7608 3.67969L7.54987 1.52344C7.15814 1.4545 6.75508 1.54397 6.42931 1.77217C6.10354 2.00037 5.88174 2.34861 5.81268 2.74031L3.02362 18.5841C2.98951 18.7782 2.99398 18.9771 3.03677 19.1694C3.07957 19.3618 3.15985 19.5439 3.27303 19.7052C3.38621 19.8665 3.53008 20.004 3.6964 20.1097C3.86273 20.2154 4.04825 20.2873 4.24237 20.3213L16.4533 22.4775C16.6475 22.5117 16.8465 22.5074 17.039 22.4647C17.2314 22.4219 17.4136 22.3417 17.575 22.2285C17.7365 22.1153 17.874 21.9714 17.9798 21.805C18.0855 21.6386 18.1575 21.453 18.1914 21.2588L20.9805 5.415C21.0488 5.02315 20.9587 4.6202 20.73 4.29478C20.5013 3.96936 20.1526 3.74811 19.7608 3.67969ZM16.7121 21L4.50018 18.8438L7.28924 3L19.5002 5.15625L16.7121 21ZM8.37581 5.47688C8.41055 5.2811 8.52161 5.10713 8.68457 4.99321C8.84754 4.8793 9.04907 4.83475 9.24487 4.86938L17.0261 6.24281C17.2111 6.27521 17.3771 6.37579 17.4915 6.52467C17.6058 6.67356 17.6602 6.85993 17.6439 7.04696C17.6275 7.23399 17.5416 7.40808 17.4031 7.53484C17.2646 7.66159 17.0836 7.73179 16.8958 7.73156C16.8518 7.7315 16.8079 7.72774 16.7646 7.72031L8.98331 6.34594C8.78753 6.3112 8.61356 6.20014 8.49964 6.03717C8.38573 5.87421 8.34118 5.67267 8.37581 5.47688ZM7.85643 8.43188C7.87353 8.33485 7.90957 8.24215 7.9625 8.15906C8.01543 8.07597 8.08421 8.00412 8.16492 7.94762C8.24562 7.89111 8.33667 7.85107 8.43285 7.82976C8.52904 7.80845 8.62848 7.8063 8.72549 7.82344L16.5067 9.19781C16.693 9.22896 16.8606 9.3292 16.9762 9.47853C17.0917 9.62786 17.1467 9.81527 17.1301 10.0034C17.1136 10.1915 17.0267 10.3664 16.8868 10.4932C16.7469 10.62 16.5643 10.6894 16.3755 10.6875C16.3311 10.6876 16.2869 10.6835 16.2433 10.6753L8.46206 9.30188C8.26643 9.26671 8.09277 9.15533 7.97921 8.9922C7.86565 8.82907 7.8215 8.62754 7.85643 8.43188ZM7.33612 11.3859C7.37151 11.1907 7.48285 11.0174 7.64574 10.9041C7.80863 10.7907 8.0098 10.7466 8.20518 10.7813L12.0939 11.4647C12.2788 11.4971 12.4448 11.5976 12.5591 11.7464C12.6735 11.8952 12.7279 12.0814 12.7117 12.2684C12.6955 12.4553 12.6097 12.6294 12.4714 12.7562C12.3331 12.8831 12.1522 12.9534 11.9646 12.9534C11.9206 12.9534 11.8767 12.9497 11.8333 12.9422L7.94268 12.255C7.74708 12.22 7.57334 12.1089 7.45962 11.9459C7.34589 11.783 7.30148 11.5816 7.33612 11.3859Z" fill="black"/>
</svg>
